HIERARCHY
ROOT Hips
{
	OFFSET 0.000000 0.000000 0.000000
	CHANNELS 6 Xposition Yposition Zposition Zrotation Yrotation Xrotation 
	JOINT Spine1
	{
		OFFSET -0.013727 5.003763 -0.053727
		CHANNELS 3 Zrotation Yrotation Xrotation
		JOINT Spine2
		{
			OFFSET -0.000000 7.125302 -0.029825
			CHANNELS 3 Zrotation Yrotation Xrotation
			JOINT Chest
			{
				OFFSET -0.000001 7.550064 -0.815971
				CHANNELS 3 Zrotation Yrotation Xrotation
				JOINT Neck1
				{
					OFFSET -0.181677 26.311296 -0.553348
					CHANNELS 3 Zrotation Yrotation Xrotation
					JOINT Neck2
					{
						OFFSET -0.000003 7.709397 2.302586
						CHANNELS 3 Zrotation Yrotation Xrotation
						JOINT Head
						{
							OFFSET -0.000005 6.128913 1.953709
							CHANNELS 3 Zrotation Yrotation Xrotation
							JOINT HeadEnd
							{
								OFFSET 0.003598 16.065401 -1.835379
								CHANNELS 3 Zrotation Yrotation Xrotation
								End Site
								{
									OFFSET 0.000000 0.000000 0.000000
								}
							}
							JOINT Jaw
							{
								OFFSET 0.002637 0.475592 3.094941
								CHANNELS 3 Zrotation Yrotation Xrotation
								End Site
								{
									OFFSET 0.000000 0.000000 0.000000
								}
							}
							JOINT LeftEye
							{
								OFFSET 3.206381 5.380207 7.586883
								CHANNELS 3 Zrotation Yrotation Xrotation
								End Site
								{
									OFFSET 0.000000 0.000000 0.000000
								}
							}
							JOINT RightEye
							{
								OFFSET -3.222440 5.361866 7.558233
								CHANNELS 3 Zrotation Yrotation Xrotation
								End Site
								{
									OFFSET 0.000000 0.000000 0.000000
								}
							}
						}
					}
				}
				JOINT LeftShoulder
				{
					OFFSET 1.621652 23.237164 5.113413
					CHANNELS 3 Zrotation Yrotation Xrotation
					JOINT LeftArm
					{
						OFFSET 14.919845 0.000001 -5.502326
						CHANNELS 3 Zrotation Yrotation Xrotation
						JOINT LeftForeArm
						{
							OFFSET 28.739309 0.000003 -0.002588
							CHANNELS 3 Zrotation Yrotation Xrotation
							JOINT LeftHand
							{
								OFFSET 27.093979 -0.000003 0.002610
								CHANNELS 3 Zrotation Yrotation Xrotation
								JOINT LeftHandThumb1
								{
									OFFSET 2.276480 -1.392045 3.191413
									CHANNELS 3 Zrotation Yrotation Xrotation
									JOINT LeftHandThumb2
									{
										OFFSET 4.012841 -1.828126 1.641655
										CHANNELS 3 Zrotation Yrotation Xrotation
										JOINT LeftHandThumb3
										{
											OFFSET 2.798516 0.000001 -0.000004
											CHANNELS 3 Zrotation Yrotation Xrotation
											JOINT LeftHandThumbEnd
											{
												OFFSET 3.180791 -0.000002 0.000003
												CHANNELS 3 Zrotation Yrotation Xrotation
												End Site
												{
													OFFSET 0.000000 0.000000 0.000000
												}
											}
										}
									}
								}
								JOINT LeftHandIndex1
								{
									OFFSET 3.247553 -0.531998 2.296169
									CHANNELS 3 Zrotation Yrotation Xrotation
									JOINT LeftHandIndex2
									{
										OFFSET 6.364579 0.012062 0.178600
										CHANNELS 3 Zrotation Yrotation Xrotation
										JOINT LeftHandIndex3
										{
											OFFSET 3.662366 0.000000 -0.000000
											CHANNELS 3 Zrotation Yrotation Xrotation
											JOINT LeftHandIndex4
											{
												OFFSET 2.329242 0.000003 0.000004
												CHANNELS 3 Zrotation Yrotation Xrotation
												JOINT LeftHandIndexEnd
												{
													OFFSET 2.759619 -0.180541 -0.113024
													CHANNELS 3 Zrotation Yrotation Xrotation
													End Site
													{
														OFFSET 0.000000 0.000000 0.000000
													}
												}
											}
										}
									}
								}
								JOINT LeftHandMiddle1
								{
									OFFSET 3.163498 0.240981 1.000332
									CHANNELS 3 Zrotation Yrotation Xrotation
									JOINT LeftHandMiddle2
									{
										OFFSET 6.190777 -0.259276 -1.002548
										CHANNELS 3 Zrotation Yrotation Xrotation
										JOINT LeftHandMiddle3
										{
											OFFSET 4.356523 -0.000006 0.000000
											CHANNELS 3 Zrotation Yrotation Xrotation
											JOINT LeftHandMiddle4
											{
												OFFSET 2.996875 -0.000008 0.000000
												CHANNELS 3 Zrotation Yrotation Xrotation
												JOINT LeftHandMiddleEnd
												{
													OFFSET 2.304294 -0.294572 -0.031740
													CHANNELS 3 Zrotation Yrotation Xrotation
													End Site
													{
														OFFSET 0.000000 0.000000 0.000000
													}
												}
											}
										}
									}
								}
								JOINT LeftHandRing1
								{
									OFFSET 2.882642 -0.053650 -0.322543
									CHANNELS 3 Zrotation Yrotation Xrotation
									JOINT LeftHandRing2
									{
										OFFSET 5.854543 -0.486204 -1.373841
										CHANNELS 3 Zrotation Yrotation Xrotation
										JOINT LeftHandRing3
										{
											OFFSET 4.350580 -0.000000 0.000003
											CHANNELS 3 Zrotation Yrotation Xrotation
											JOINT LeftHandRing4
											{
												OFFSET 2.651324 0.000007 0.000004
												CHANNELS 3 Zrotation Yrotation Xrotation
												JOINT LeftHandRingEnd
												{
													OFFSET 1.936111 0.077685 -0.000070
													CHANNELS 3 Zrotation Yrotation Xrotation
													End Site
													{
														OFFSET 0.000000 0.000000 0.000000
													}
												}
											}
										}
									}
								}
								JOINT LeftHandPinky1
								{
									OFFSET 2.865499 -0.310004 -1.600378
									CHANNELS 3 Zrotation Yrotation Xrotation
									JOINT LeftHandPinky2
									{
										OFFSET 5.087853 -1.331142 -1.771231
										CHANNELS 3 Zrotation Yrotation Xrotation
										JOINT LeftHandPinky3
										{
											OFFSET 3.070974 0.000003 0.000001
											CHANNELS 3 Zrotation Yrotation Xrotation
											JOINT LeftHandPinky4
											{
												OFFSET 1.549668 0.000001 0.000000
												CHANNELS 3 Zrotation Yrotation Xrotation
												JOINT LeftHandPinkyEnd
												{
													OFFSET 1.944894 -0.157802 0.057219
													CHANNELS 3 Zrotation Yrotation Xrotation
													End Site
													{
														OFFSET 0.000000 0.000000 0.000000
													}
												}
											}
										}
									}
								}
							}
						}
					}
				}
				JOINT RightShoulder
				{
					OFFSET -1.380118 23.180307 5.214158
					CHANNELS 3 Zrotation Yrotation Xrotation
					JOINT RightArm
					{
						OFFSET -15.037197 0.000011 -5.545604
						CHANNELS 3 Zrotation Yrotation Xrotation
						JOINT RightForeArm
						{
							OFFSET -28.736639 0.000004 -0.002597
							CHANNELS 3 Zrotation Yrotation Xrotation
							JOINT RightHand
							{
								OFFSET -27.133617 -0.000001 0.002612
								CHANNELS 3 Zrotation Yrotation Xrotation
								JOINT RightHandThumb1
								{
									OFFSET -2.274036 -1.383990 3.163128
									CHANNELS 3 Zrotation Yrotation Xrotation
									JOINT RightHandThumb2
									{
										OFFSET -4.011429 -1.827468 1.640915
										CHANNELS 3 Zrotation Yrotation Xrotation
										JOINT RightHandThumb3
										{
											OFFSET -2.794934 -0.000002 -0.000003
											CHANNELS 3 Zrotation Yrotation Xrotation
											JOINT RightHandThumbEnd
											{
												OFFSET -3.183855 0.000003 -0.000001
												CHANNELS 3 Zrotation Yrotation Xrotation
												End Site
												{
													OFFSET 0.000000 0.000000 0.000000
												}
											}
										}
									}
								}
								JOINT RightHandIndex1
								{
									OFFSET -3.253269 -0.520059 2.282866
									CHANNELS 3 Zrotation Yrotation Xrotation
									JOINT RightHandIndex2
									{
										OFFSET -6.341918 0.012473 0.178265
										CHANNELS 3 Zrotation Yrotation Xrotation
										JOINT RightHandIndex3
										{
											OFFSET -3.654875 -0.000009 -0.000001
											CHANNELS 3 Zrotation Yrotation Xrotation
											JOINT RightHandIndex4
											{
												OFFSET -2.327587 0.000001 0.000000
												CHANNELS 3 Zrotation Yrotation Xrotation
												JOINT RightHandIndexEnd
												{
													OFFSET -2.761789 -0.180657 -0.113079
													CHANNELS 3 Zrotation Yrotation Xrotation
													End Site
													{
														OFFSET 0.000000 0.000000 0.000000
													}
												}
											}
										}
									}
								}
								JOINT RightHandMiddle1
								{
									OFFSET -3.168107 0.246594 1.001031
									CHANNELS 3 Zrotation Yrotation Xrotation
									JOINT RightHandMiddle2
									{
										OFFSET -6.180830 -0.258836 -1.000896
										CHANNELS 3 Zrotation Yrotation Xrotation
										JOINT RightHandMiddle3
										{
											OFFSET -4.348904 -0.000001 -0.000000
											CHANNELS 3 Zrotation Yrotation Xrotation
											JOINT RightHandMiddle4
											{
												OFFSET -3.000244 -0.000002 -0.000003
												CHANNELS 3 Zrotation Yrotation Xrotation
												JOINT RightHandMiddleEnd
												{
													OFFSET -2.302518 -0.294372 -0.031706
													CHANNELS 3 Zrotation Yrotation Xrotation
													End Site
													{
														OFFSET 0.000000 0.000000 0.000000
													}
												}
											}
										}
									}
								}
								JOINT RightHandRing1
								{
									OFFSET -2.885694 -0.067953 -0.308858
									CHANNELS 3 Zrotation Yrotation Xrotation
									JOINT RightHandRing2
									{
										OFFSET -5.854197 -0.486132 -1.373732
										CHANNELS 3 Zrotation Yrotation Xrotation
										JOINT RightHandRing3
										{
											OFFSET -4.338814 -0.000004 -0.000000
											CHANNELS 3 Zrotation Yrotation Xrotation
											JOINT RightHandRing4
											{
												OFFSET -2.654905 -0.000005 0.000003
												CHANNELS 3 Zrotation Yrotation Xrotation
												JOINT RightHandRingEnd
												{
													OFFSET -1.933570 0.077524 -0.000052
													CHANNELS 3 Zrotation Yrotation Xrotation
													End Site
													{
														OFFSET 0.000000 0.000000 0.000000
													}
												}
											}
										}
									}
								}
								JOINT RightHandPinky1
								{
									OFFSET -2.866429 -0.342798 -1.584145
									CHANNELS 3 Zrotation Yrotation Xrotation
									JOINT RightHandPinky2
									{
										OFFSET -5.091370 -1.332054 -1.772385
										CHANNELS 3 Zrotation Yrotation Xrotation
										JOINT RightHandPinky3
										{
											OFFSET -3.062667 -0.000007 0.000001
											CHANNELS 3 Zrotation Yrotation Xrotation
											JOINT RightHandPinky4
											{
												OFFSET -1.546526 0.000006 -0.000003
												CHANNELS 3 Zrotation Yrotation Xrotation
												JOINT RightHandPinkyEnd
												{
													OFFSET -1.945122 -0.157721 0.057211
													CHANNELS 3 Zrotation Yrotation Xrotation
													End Site
													{
														OFFSET 0.000000 0.000000 0.000000
													}
												}
											}
										}
									}
								}
							}
						}
					}
				}
			}
		}
	}
	JOINT LeftLeg
	{
		OFFSET 10.043214 -8.434526 2.595655
		CHANNELS 3 Zrotation Yrotation Xrotation
		JOINT LeftShin
		{
			OFFSET -0.000002 -43.221752 -0.802913
			CHANNELS 3 Zrotation Yrotation Xrotation
			JOINT LeftFoot
			{
				OFFSET 0.000001 -42.155094 -3.481523
				CHANNELS 3 Zrotation Yrotation Xrotation
				JOINT LeftToeBase
				{
					OFFSET 0.000000 -5.059475 13.231529
					CHANNELS 3 Zrotation Yrotation Xrotation
					JOINT LeftToeEnd
					{
						OFFSET -0.009607 -1.647615 6.513017
						CHANNELS 3 Zrotation Yrotation Xrotation
						End Site
						{
							OFFSET 0.000000 0.000000 0.000000
						}
					}
				}
			}
		}
	}
	JOINT RightLeg
	{
		OFFSET -10.047277 -8.295259 2.620317
		CHANNELS 3 Zrotation Yrotation Xrotation
		JOINT RightShin
		{
			OFFSET 0.000001 -43.362209 -0.805556
			CHANNELS 3 Zrotation Yrotation Xrotation
			JOINT RightFoot
			{
				OFFSET 0.000002 -42.117393 -3.478398
				CHANNELS 3 Zrotation Yrotation Xrotation
				JOINT RightToeBase
				{
					OFFSET -0.000001 -5.079609 13.284196
					CHANNELS 3 Zrotation Yrotation Xrotation
					JOINT RightToeEnd
					{
						OFFSET 0.009533 -1.634383 6.460591
						CHANNELS 3 Zrotation Yrotation Xrotation
						End Site
						{
							OFFSET 0.000000 0.000000 0.000000
						}
					}
				}
			}
		}
	}
}
MOTION
Frames: 4
Frame Time: 0.033333
0.703011 95.944466 4.644998 -2.999132 -0.811020 -5.295573 3.486531 0.057509 0.727088 0.096407 -0.284020 -4.820513 2.024270 -2.843596 14.325018 -8.423081 8.400276 16.275417 3.579634 14.418844 -3.014923 -1.997167 16.484455 -11.863776 0.000077 -0.000021 0.000006 -0.028988 -0.051939 -0.003136 0.724657 -3.829715 -10.677081 -0.798102 3.729434 -10.670918 -3.025520 -13.669944 9.155580 -38.115307 -24.905552 -42.390781 179.350281 -49.185173 -179.219681 13.127256 -10.385767 -23.570999 -5.882103 9.861278 0.702590 -10.936860 -0.360575 7.156198 0.000003 8.774813 -0.000001 -16.687248 17.973351 6.169755 -1.844031 2.498503 -2.507276 -10.163590 4.678939 4.621104 -20.975998 -0.000004 0.000003 -21.226255 2.451692 -3.593992 -0.000000 -0.000006 0.000000 -1.362680 2.240797 -0.746323 -21.334896 0.584908 3.008321 -13.821197 -0.000002 0.000003 -23.887133 -0.249078 -0.839480 -60.824505 2.733423 -1.181955 -0.294023 1.679686 0.833255 -14.218195 0.093214 1.300580 -34.212013 -0.287564 0.967171 -20.033180 0.964535 1.212842 0.000000 -0.000000 0.000000 -3.440386 0.788233 0.501655 -15.928169 -3.167306 2.999704 -6.338818 -0.000001 0.000002 -18.123417 3.648175 -4.905660 -0.000006 -0.000000 -0.000002 6.925899 14.902411 12.712233 62.317379 60.206905 21.696922 -179.751801 62.736679 -179.821457 -8.133191 -0.622355 -5.907857 2.243540 -5.255031 -3.180155 14.282881 -0.826594 6.952494 -0.000005 -12.690591 0.000001 16.390400 -18.379595 2.759125 1.665663 -1.955919 -2.878296 4.727794 -4.170584 4.993917 11.020513 0.000003 0.000001 12.109032 -3.735711 -2.866779 -0.000001 -0.000001 0.000001 1.291986 -1.928547 -1.498089 14.800111 0.567468 3.865603 14.242553 -1.341735 -6.660647 19.631939 0.143927 -0.648242 50.343079 -0.920588 -6.061678 0.353029 -1.511150 -0.031940 20.222767 3.684307 2.316628 18.787245 0.000006 -0.000001 10.751610 -0.479866 1.397905 0.000000 0.000001 0.000000 3.273804 0.305947 -0.580111 21.486794 11.830363 2.266132 8.162916 0.000002 0.000000 18.399054 -3.798982 -4.940565 0.000003 0.000001 0.000000 13.414145 39.361507 -17.915802 -0.214209 -0.364244 29.741377 -4.356550 -2.323434 -0.836868 1.646922 -1.731052 -0.115831 -0.000000 0.000000 0.000002 -9.434593 -22.230703 2.467017 0.149916 0.351590 23.884333 9.606054 4.025778 -16.393646 -1.406146 0.871286 -1.117488 -0.000000 -0.000000 -0.000001 
0.860508 95.952026 4.856906 -2.951584 -0.990625 -5.273783 3.480174 0.036687 0.669855 0.145924 -0.307026 -4.834252 2.060058 -2.773020 14.360421 -8.573084 8.394127 16.161383 3.605382 14.471254 -3.008693 -2.084776 16.648703 -11.816254 0.000077 -0.000021 0.000006 -0.022297 -0.040648 0.005066 0.723508 -3.830881 -10.683811 -0.772077 3.734164 -10.685225 -3.068369 -13.646323 9.056457 -38.066757 -24.782314 -42.469215 179.392593 -49.315578 -179.326935 13.086402 -10.490075 -24.001717 -5.882101 9.861278 0.702590 -10.936858 -0.360573 7.156197 0.000000 8.774813 -0.000001 -16.708527 17.998087 6.190732 -1.844030 2.498502 -2.507276 -10.163589 4.678941 4.621104 -20.975996 -0.000002 0.000003 -21.226255 2.451694 -3.593994 0.000001 -0.000006 -0.000000 -1.362680 2.240797 -0.746323 -21.334892 0.584910 3.008321 -13.821197 -0.000002 0.000002 -23.887133 -0.249076 -0.839481 -60.812244 2.635270 -1.151300 -0.294025 1.679685 0.833255 -14.218194 0.093215 1.300580 -34.212006 -0.287561 0.967169 -20.033178 0.964536 1.212841 -0.000000 -0.000000 -0.000000 -3.440386 0.788233 0.501655 -15.928169 -3.167305 2.999704 -6.338816 -0.000001 0.000001 -18.123415 3.648177 -4.905661 -0.000005 -0.000000 -0.000001 6.962964 14.880778 12.762480 62.462372 60.274464 21.928555 -179.699326 62.665314 -179.646942 -8.010457 -0.607099 -6.059439 2.243541 -5.255033 -3.180155 14.282878 -0.826593 6.952497 -0.000005 -12.690592 0.000002 16.308275 -18.296902 2.797875 1.665666 -1.955921 -2.878295 4.727793 -4.170585 4.993919 11.020512 0.000003 -0.000002 12.109030 -3.735710 -2.866779 -0.000000 -0.000001 0.000002 1.291985 -1.928548 -1.498090 14.800109 0.567468 3.865606 14.242553 -1.341735 -6.660646 19.631939 0.143925 -0.648245 50.235924 -0.858369 -6.043712 0.353029 -1.511150 -0.031940 20.222769 3.684306 2.316628 18.787245 0.000005 -0.000000 10.751609 -0.479869 1.397902 -0.000001 0.000002 -0.000000 3.273805 0.305947 -0.580109 21.486792 11.830366 2.266132 8.162916 0.000003 0.000000 18.399050 -3.798980 -4.940565 0.000003 0.000001 0.000000 13.443335 39.252895 -17.770473 -0.208367 -0.324514 29.952124 -4.373046 -2.000941 -1.120240 1.644930 -1.783973 -0.114444 0.000000 0.000000 0.000002 -9.596285 -22.043423 2.659491 0.121815 0.331683 23.626268 9.721322 4.034647 -16.319077 -1.408936 0.857459 -1.185788 -0.000000 0.000001 -0.000001 
0.991551 95.934006 4.981725 -2.925820 -1.186162 -5.249116 3.494213 0.043512 0.638217 0.167150 -0.332056 -4.860742 2.094767 -2.683889 14.383503 -8.641698 8.378199 16.093853 3.596654 14.523129 -3.003030 -2.150425 16.727409 -11.807288 0.000077 -0.000022 0.000006 -0.012195 -0.051878 0.014030 0.722878 -3.841544 -10.698698 -0.757670 3.739786 -10.703173 -3.044955 -13.680435 8.962122 -38.002522 -24.640659 -42.556660 179.401367 -49.478012 -179.427505 13.055971 -10.564600 -24.285616 -5.882100 9.861278 0.702590 -10.936859 -0.360575 7.156198 0.000001 8.774814 -0.000002 -16.679838 18.002142 6.203238 -1.844031 2.498503 -2.507276 -10.163589 4.678939 4.621104 -20.975996 -0.000004 0.000002 -21.226254 2.451692 -3.593993 -0.000000 -0.000006 0.000001 -1.362681 2.240797 -0.746323 -21.334887 0.584907 3.008320 -13.821197 -0.000003 0.000003 -23.887129 -0.249079 -0.839480 -60.814102 2.585951 -1.141472 -0.294023 1.679686 0.833255 -14.218192 0.093213 1.300579 -34.212002 -0.287565 0.967171 -20.033176 0.964534 1.212842 0.000000 0.000000 0.000000 -3.440385 0.788232 0.501655 -15.928169 -3.167307 2.999704 -6.338817 -0.000001 0.000001 -18.123415 3.648176 -4.905661 -0.000005 -0.000000 -0.000002 6.990511 14.899817 12.761225 62.601589 60.344711 22.005833 -179.831421 62.670090 -179.684433 -7.890259 -0.544062 -6.316953 2.243538 -5.255033 -3.180155 14.282875 -0.826593 6.952498 -0.000004 -12.690592 -0.000001 16.214745 -18.216520 2.830037 1.665663 -1.955919 -2.878295 4.727793 -4.170583 4.993918 11.020509 0.000005 -0.000000 12.109029 -3.735708 -2.866778 -0.000000 -0.000001 0.000001 1.291984 -1.928548 -1.498088 14.800113 0.567469 3.865605 14.242551 -1.341733 -6.660650 19.631939 0.143927 -0.648241 50.145042 -0.842764 -6.016599 0.353027 -1.511148 -0.031939 20.222767 3.684308 2.316631 18.787243 0.000006 0.000003 10.751610 -0.479866 1.397906 0.000000 0.000001 0.000001 3.273803 0.305948 -0.580110 21.486788 11.830365 2.266132 8.162915 0.000001 -0.000001 18.399050 -3.798978 -4.940566 0.000003 0.000000 0.000000 13.461963 39.277664 -17.716339 -0.199550 -0.297135 30.181887 -4.383019 -1.811664 -1.387262 1.641568 -1.800918 -0.089309 -0.000000 -0.000001 0.000002 -9.709576 -21.888990 2.679220 0.121816 0.330937 23.596764 9.734875 4.105175 -16.315371 -1.409836 0.862259 -1.222684 0.000000 0.000000 -0.000001 
1.114786 95.894379 5.068315 -2.929200 -1.383634 -5.235282 3.516216 0.047142 0.625287 0.173704 -0.343226 -4.879596 2.138220 -2.615558 14.397895 -8.682238 8.372534 16.020266 3.584072 14.546880 -2.998334 -2.224733 16.777508 -11.821333 0.000077 -0.000020 0.000006 -0.010690 -0.064283 0.024327 0.719789 -3.833510 -10.703598 -0.751333 3.733490 -10.712529 -2.975307 -13.694375 8.883041 -37.967232 -24.472351 -42.694244 179.446838 -49.617043 -179.493546 13.036445 -10.603957 -24.479527 -5.882100 9.861279 0.702589 -10.936859 -0.360575 7.156196 0.000002 8.774816 -0.000002 -16.588129 17.962322 6.243936 -1.844031 2.498503 -2.507275 -10.163589 4.678940 4.621102 -20.975994 -0.000005 0.000001 -21.226250 2.451691 -3.593995 0.000000 -0.000006 -0.000000 -1.362681 2.240797 -0.746323 -21.334887 0.584907 3.008318 -13.821197 -0.000004 0.000002 -23.887129 -0.249080 -0.839482 -60.742786 2.596162 -1.149712 -0.294025 1.679687 0.833255 -14.218190 0.093214 1.300578 -34.211998 -0.287566 0.967168 -20.033176 0.964533 1.212841 -0.000000 -0.000000 0.000001 -3.440385 0.788232 0.501655 -15.928169 -3.167307 2.999703 -6.338813 -0.000001 0.000001 -18.123411 3.648176 -4.905663 -0.000005 -0.000000 -0.000002 6.973432 14.951089 12.704477 62.782753 60.390747 22.090977 -179.977417 62.691456 -179.720795 -7.773223 -0.475778 -6.691968 2.243540 -5.255031 -3.180156 14.282877 -0.826589 6.952495 -0.000005 -12.690592 0.000001 16.094290 -18.186647 2.850282 1.665663 -1.955920 -2.878296 4.727794 -4.170584 4.993916 11.020513 0.000006 0.000001 12.109030 -3.735708 -2.866781 -0.000000 -0.000001 0.000001 1.291985 -1.928548 -1.498088 14.800111 0.567470 3.865603 14.242551 -1.341733 -6.660646 19.631939 0.143927 -0.648242 50.086346 -0.857436 -6.004634 0.353027 -1.511151 -0.031941 20.222769 3.684309 2.316629 18.787245 0.000006 0.000001 10.751610 -0.479867 1.397905 0.000001 0.000001 0.000000 3.273804 0.305947 -0.580110 21.486792 11.830369 2.266132 8.162917 0.000003 0.000001 18.399052 -3.798980 -4.940565 0.000003 0.000000 -0.000001 13.496020 39.334866 -17.724874 -0.189821 -0.297646 30.482334 -4.390659 -1.655824 -1.677304 1.635321 -1.801319 -0.041003 0.000000 0.000001 0.000002 -9.786018 -21.742680 2.623212 0.114296 0.305745 23.698248 9.749048 4.196299 -16.353245 -1.411527 0.880568 -1.221723 0.000000 0.000000 -0.000001 
